<svg id="Layer_1" data-name="Layer 1" xmlns="http://www.w3.org/2000/svg" viewBox="0 0 35.16 40.15"><defs><style>.cls-1{fill:#fff;}</style></defs><title>mark</title><path class="cls-1" d="M42.83,14.85l-16.1-9.3a1.52,1.52,0,0,0-1.49,0l-16.1,9.3a1.49,1.49,0,0,0-.74,1.28V34.72A1.52,1.52,0,0,0,9.14,36l16.1,9.29a1.47,1.47,0,0,0,1.49,0L42.83,36a1.52,1.52,0,0,0,.74-1.29V16.13A1.49,1.49,0,0,0,42.83,14.85ZM35.35,30a1.49,1.49,0,0,1-.74,1.28l-7.88,4.55a1.52,1.52,0,0,1-1.49,0l-7.88-4.55A1.49,1.49,0,0,1,16.62,30v-9.1a1.52,1.52,0,0,1,.74-1.29l7.88-4.54a1.47,1.47,0,0,1,1.49,0l7.88,4.54a1.52,1.52,0,0,1,.74,1.29Z" transform="translate(-8.4 -5.35)"/></svg>